<svg xmlns="http://www.w3.org/2000/svg" xmlns:xlink="http://www.w3.org/1999/xlink" width="500" zoomAndPan="magnify" viewBox="0 0 375 374.999991" height="500" preserveAspectRatio="xMidYMid meet" version="1.0"><defs><g/><clipPath id="7803112d4f"><path d="M 119.601562 217.203125 L 349.609375 217.203125 L 349.609375 223.011719 L 119.601562 223.011719 Z M 119.601562 217.203125 " clip-rule="nonzero"/></clipPath><clipPath id="21ee9a578f"><path d="M 25.390625 148 L 94.390625 148 L 94.390625 226.722656 L 25.390625 226.722656 Z M 25.390625 148 " clip-rule="nonzero"/></clipPath></defs><g clip-path="url(#7803112d4f)"><path fill="#fafafa" d="M 119.601562 217.203125 L 349.617188 217.203125 L 349.617188 223.011719 L 119.601562 223.011719 Z M 119.601562 217.203125 " fill-opacity="1" fill-rule="nonzero"/></g><g fill="#fafafa" fill-opacity="1"><g transform="translate(116.353348, 206.451008)"><g><path d="M 21.734375 -31.296875 C 25.929688 -31.296875 29.242188 -29.863281 31.671875 -27 C 34.097656 -24.132812 35.3125 -20.410156 35.3125 -15.828125 C 35.3125 -10.546875 33.914062 -6.453125 31.125 -3.546875 C 28.332031 -0.648438 24.859375 0.796875 20.703125 0.796875 C 17.566406 0.796875 15.175781 0.222656 13.53125 -0.921875 L 11.515625 -4.0625 L 11.515625 11.234375 L 3.609375 11.234375 L 3.609375 -30.5 L 11.515625 -30.5 L 11.515625 -25.859375 L 13.8125 -29.1875 C 15.570312 -30.59375 18.210938 -31.296875 21.734375 -31.296875 Z M 19.140625 -4.765625 C 21.515625 -4.765625 23.4375 -5.671875 24.90625 -7.484375 C 26.375 -9.296875 27.109375 -11.90625 27.109375 -15.3125 C 27.109375 -18.4375 26.410156 -20.953125 25.015625 -22.859375 C 23.628906 -24.773438 21.769531 -25.734375 19.4375 -25.734375 C 17.0625 -25.734375 15.144531 -24.921875 13.6875 -23.296875 C 12.238281 -21.679688 11.515625 -19.113281 11.515625 -15.59375 L 11.515625 -14.15625 C 11.515625 -10.945312 12.257812 -8.578125 13.75 -7.046875 C 15.25 -5.523438 17.046875 -4.765625 19.140625 -4.765625 Z M 19.140625 -4.765625 "/></g></g></g><g fill="#fafafa" fill-opacity="1"><g transform="translate(153.211819, 206.451008)"><g><path d="M 11.296875 -42.140625 L 11.296875 -9.96875 C 11.296875 -8.632812 11.3125 -7.703125 11.34375 -7.171875 C 11.425781 -6.367188 11.710938 -5.832031 12.203125 -5.5625 C 12.703125 -5.289062 13.601562 -5.195312 14.90625 -5.28125 L 14.90625 0.171875 C 13.53125 0.328125 11.90625 0.40625 10.03125 0.40625 C 5.820312 0.40625 3.644531 -1.390625 3.5 -4.984375 C 3.414062 -5.898438 3.375 -7.503906 3.375 -9.796875 L 3.375 -42.140625 Z M 11.296875 -42.140625 "/></g></g></g><g fill="#fafafa" fill-opacity="1"><g transform="translate(169.20485, 206.451008)"><g><path d="M 21.328125 0 L 20.75 -4.46875 L 19.265625 -1.203125 C 17.273438 0.128906 14.75 0.796875 11.6875 0.796875 C 8.90625 0.796875 6.578125 0.015625 4.703125 -1.546875 C 2.828125 -3.109375 1.890625 -5.285156 1.890625 -8.078125 C 1.890625 -11.441406 3.3125 -14.03125 6.15625 -15.84375 C 9.007812 -17.664062 13.1875 -18.578125 18.6875 -18.578125 L 20.640625 -18.578125 L 20.640625 -19.203125 C 20.640625 -20.429688 20.601562 -21.390625 20.53125 -22.078125 C 20.257812 -24.515625 18.691406 -25.734375 15.828125 -25.734375 C 12.648438 -25.734375 10.945312 -24.015625 10.71875 -20.578125 L 3.03125 -20.53125 C 3.144531 -23.882812 4.414062 -26.515625 6.84375 -28.421875 C 9.269531 -30.335938 12.359375 -31.296875 16.109375 -31.296875 C 23.710938 -31.296875 27.78125 -28.296875 28.3125 -22.296875 C 28.425781 -20.847656 28.484375 -19.28125 28.484375 -17.59375 L 28.484375 -7.734375 C 28.484375 -5.410156 28.675781 -2.832031 29.0625 0 Z M 14.734375 -4.765625 C 16.410156 -4.765625 17.8125 -5.335938 18.9375 -6.484375 C 20.070312 -7.628906 20.640625 -9.210938 20.640625 -11.234375 L 20.640625 -13.703125 C 13.609375 -14.203125 10.09375 -12.539062 10.09375 -8.71875 C 10.09375 -6.082031 11.640625 -4.765625 14.734375 -4.765625 Z M 14.734375 -4.765625 "/></g></g></g><g fill="#fafafa" fill-opacity="1"><g transform="translate(201.420183, 206.451008)"><g><path d="M 32.046875 -22.765625 C 32.203125 -21.390625 32.28125 -19.535156 32.28125 -17.203125 L 32.28125 0 L 24.359375 0 L 24.359375 -16.109375 C 24.359375 -17.898438 24.320312 -19.3125 24.25 -20.34375 C 23.976562 -23.9375 22.03125 -25.734375 18.40625 -25.734375 C 16.34375 -25.734375 14.675781 -24.769531 13.40625 -22.84375 C 12.144531 -20.914062 11.515625 -17.945312 11.515625 -13.9375 L 11.515625 0 L 3.609375 0 L 3.609375 -30.5 L 11.515625 -30.5 L 11.515625 -25.5625 L 13.875 -29.1875 C 15.863281 -30.59375 18.3125 -31.296875 21.21875 -31.296875 C 24.425781 -31.296875 26.957031 -30.550781 28.8125 -29.0625 C 30.664062 -27.570312 31.742188 -25.472656 32.046875 -22.765625 Z M 32.046875 -22.765625 "/></g></g></g><g fill="#fafafa" fill-opacity="1"><g transform="translate(237.017561, 206.451008)"><g><path d="M 32.046875 -22.765625 C 32.203125 -21.390625 32.28125 -19.535156 32.28125 -17.203125 L 32.28125 0 L 24.359375 0 L 24.359375 -16.109375 C 24.359375 -17.898438 24.320312 -19.3125 24.25 -20.34375 C 23.976562 -23.9375 22.03125 -25.734375 18.40625 -25.734375 C 16.34375 -25.734375 14.675781 -24.769531 13.40625 -22.84375 C 12.144531 -20.914062 11.515625 -17.945312 11.515625 -13.9375 L 11.515625 0 L 3.609375 0 L 3.609375 -30.5 L 11.515625 -30.5 L 11.515625 -25.5625 L 13.875 -29.1875 C 15.863281 -30.59375 18.3125 -31.296875 21.21875 -31.296875 C 24.425781 -31.296875 26.957031 -30.550781 28.8125 -29.0625 C 30.664062 -27.570312 31.742188 -25.472656 32.046875 -22.765625 Z M 32.046875 -22.765625 "/></g></g></g><g fill="#fafafa" fill-opacity="1"><g transform="translate(272.614938, 206.451008)"><g><path d="M 31.296875 -15.875 C 31.296875 -14.769531 31.257812 -13.875 31.1875 -13.1875 L 9.515625 -13.1875 C 9.972656 -7.570312 12.320312 -4.765625 16.5625 -4.765625 C 18.28125 -4.765625 19.703125 -5.222656 20.828125 -6.140625 C 21.960938 -7.054688 22.664062 -8.316406 22.9375 -9.921875 L 30.84375 -9.921875 C 30.082031 -6.441406 28.410156 -3.785156 25.828125 -1.953125 C 23.242188 -0.117188 20.097656 0.796875 16.390625 0.796875 C 11.992188 0.796875 8.421875 -0.566406 5.671875 -3.296875 C 2.921875 -6.023438 1.546875 -9.972656 1.546875 -15.140625 C 1.546875 -19.878906 2.96875 -23.753906 5.8125 -26.765625 C 8.664062 -29.785156 12.40625 -31.296875 17.03125 -31.296875 C 21.5 -31.296875 24.992188 -29.820312 27.515625 -26.875 C 30.035156 -23.9375 31.296875 -20.269531 31.296875 -15.875 Z M 16.6875 -25.734375 C 12.75 -25.734375 10.4375 -23.269531 9.75 -18.34375 L 23.15625 -18.34375 C 22.625 -23.269531 20.46875 -25.734375 16.6875 -25.734375 Z M 16.6875 -25.734375 "/></g></g></g><g fill="#fafafa" fill-opacity="1"><g transform="translate(305.747438, 206.451008)"><g><path d="M 19.140625 -31.25 C 20.023438 -31.25 20.773438 -31.171875 21.390625 -31.015625 L 21.390625 -24.65625 C 18.023438 -24.882812 15.535156 -24.164062 13.921875 -22.5 C 12.316406 -20.832031 11.515625 -17.992188 11.515625 -13.984375 L 11.515625 0 L 3.609375 0 L 3.609375 -30.5 L 11.515625 -30.5 L 11.515625 -24.9375 L 13.9375 -29.1875 C 15.425781 -30.5625 17.160156 -31.25 19.140625 -31.25 Z M 19.140625 -31.25 "/></g></g></g><g clip-path="url(#21ee9a578f)"><path fill="#fafafa" d="M 93.265625 167.21875 L 60.570312 148.34375 C 60.566406 148.339844 60.566406 148.339844 60.5625 148.339844 C 60.054688 148.046875 59.421875 148.050781 58.914062 148.34375 L 26.21875 167.21875 C 25.707031 167.511719 25.390625 168.0625 25.390625 168.652344 L 25.390625 206.40625 C 25.390625 206.996094 25.707031 207.546875 26.21875 207.839844 L 58.917969 226.71875 C 59.167969 226.863281 59.453125 226.9375 59.742188 226.9375 C 60.027344 226.9375 60.3125 226.863281 60.570312 226.71875 L 93.261719 207.839844 C 93.773438 207.546875 94.089844 206.996094 94.089844 206.40625 L 94.089844 168.652344 C 94.09375 168.0625 93.773438 167.511719 93.265625 167.21875 Z M 90.777344 190.484375 L 90.777344 205.449219 L 59.742188 223.371094 L 47.980469 216.578125 Z M 30.359375 206.40625 L 90.777344 171.527344 L 90.777344 186.605469 L 44.710938 214.691406 Z M 59.734375 171.320312 L 43.300781 161.179688 L 59.742188 151.691406 L 76.171875 161.175781 Z M 59.691406 185.648438 L 30.34375 168.664062 L 40.042969 163.0625 L 58.863281 174.675781 C 59.390625 175.003906 60.09375 174.996094 60.605469 174.675781 L 79.433594 163.058594 L 89.128906 168.65625 Z M 28.703125 183.484375 L 28.703125 171.539062 L 56.378906 187.558594 L 46.078125 193.507812 Z M 42.765625 195.417969 L 28.703125 203.535156 L 28.703125 187.308594 Z M 42.765625 195.417969 " fill-opacity="1" fill-rule="nonzero"/></g></svg>